<?xml version="1.0" encoding="UTF-8"?>
<svg id="_타이틀" data-name="타이틀" xmlns="http://www.w3.org/2000/svg" viewBox="0 0 21.29 22.89">
  <defs>
    <style>
      .cls-1 {
        fill: #fff;
      }
    </style>
  </defs>
  <path class="cls-1" d="M17.66,22.89H3.63c-2,0-3.63-1.63-3.63-3.63V3.63C0,1.63,1.63,0,3.63,0h14.03c2,0,3.63,1.63,3.63,3.63v15.63c0,2-1.63,3.63-3.63,3.63ZM3.63,1.67c-1.08,0-1.95.88-1.95,1.95v15.63c0,1.08.88,1.95,1.95,1.95h14.03c1.08,0,1.95-.88,1.95-1.95V3.63c0-1.08-.88-1.95-1.95-1.95H3.63Z"/>
  <g>
    <g>
      <path class="cls-1" d="M7.69,9.98h-3.12c-.46,0-.84-.37-.84-.84v-3.12c0-.46.37-.84.84-.84h3.12c.46,0,.84.37.84.84v3.12c0,.46-.37.84-.84.84ZM5.4,8.31h1.45v-1.45h-1.45v1.45Z"/>
      <path class="cls-1" d="M16.72,8.42h-6.24c-.46,0-.84-.37-.84-.84s.37-.84.84-.84h6.24c.46,0,.84.37.84.84s-.37.84-.84.84Z"/>
    </g>
    <g>
      <path class="cls-1" d="M7.69,17.7h-3.12c-.46,0-.84-.37-.84-.84v-3.12c0-.46.37-.84.84-.84h3.12c.46,0,.84.37.84.84v3.12c0,.46-.37.84-.84.84ZM5.4,16.03h1.45v-1.45h-1.45v1.45Z"/>
      <path class="cls-1" d="M16.72,16.14h-6.24c-.46,0-.84-.37-.84-.84s.37-.84.84-.84h6.24c.46,0,.84.37.84.84s-.37.84-.84.84Z"/>
    </g>
  </g>
</svg>