<?xml version="1.0" encoding="UTF-8"?>
<svg id="_타이틀" data-name="타이틀" xmlns="http://www.w3.org/2000/svg" viewBox="0 0 21.24 20.76">
  <defs>
    <style>
      .cls-1 {
        fill: #fff;
      }
    </style>
  </defs>
  <path class="cls-1" d="M18.02,20.76H3.22c-.44,0-.86-.09-1.26-.25-.38-.16-.73-.39-1.02-.69-.3-.3-.53-.64-.69-1.02-.17-.4-.25-.82-.25-1.26V4.89c0-.44.09-.86.25-1.26.16-.38.39-.73.69-1.02.29-.29.64-.52,1.02-.69.4-.17.82-.25,1.26-.25.46,0,.84.37.84.84s-.37.84-.84.84c-.21,0-.41.04-.6.12-.18.08-.35.19-.49.33-.14.14-.25.31-.33.49-.08.19-.12.39-.12.6v12.65c0,.21.04.41.12.6.08.19.19.35.33.49.14.14.31.25.49.33.19.08.39.12.6.12h14.79c.21,0,.41-.04.6-.12.19-.08.35-.19.5-.33.14-.14.25-.31.33-.49.08-.19.12-.39.12-.6V4.89c0-.21-.04-.41-.12-.6-.08-.19-.19-.35-.33-.49-.14-.14-.31-.25-.5-.33-.19-.08-.39-.12-.6-.12-.46,0-.84-.37-.84-.84s.37-.84.84-.84c.44,0,.86.09,1.26.25.39.16.73.4,1.02.69.3.3.53.64.69,1.03.17.4.25.82.25,1.26v12.65c0,.43-.09.86-.25,1.26-.16.38-.4.73-.69,1.02-.3.3-.64.53-1.03.69-.39.17-.82.25-1.25.25Z"/>
  <path class="cls-1" d="M13.36,3.34h-5.49c-.46,0-.84-.37-.84-.84s.37-.84.84-.84h5.49c.46,0,.84.37.84.84s-.37.84-.84.84Z"/>
  <g>
    <path class="cls-1" d="M5.49,4.3c-.46,0-.84-.37-.84-.84V.84c0-.46.37-.84.84-.84s.84.37.84.84v2.62c0,.46-.37.84-.84.84Z"/>
    <path class="cls-1" d="M15.75,4.3c-.46,0-.84-.37-.84-.84V.84c0-.46.37-.84.84-.84s.84.37.84.84v2.62c0,.46-.37.84-.84.84Z"/>
  </g>
  <path class="cls-1" d="M13.01,10.5h-4.77c-.46,0-.84-.37-.84-.84s.37-.84.84-.84h4.77c.46,0,.84.37.84.84s-.37.84-.84.84Z"/>
  <path class="cls-1" d="M13.01,14.56h-4.77c-.46,0-.84-.37-.84-.84s.37-.84.84-.84h4.77c.46,0,.84.37.84.84s-.37.84-.84.84Z"/>
</svg>