<?xml version="1.0" encoding="UTF-8"?>
<svg id="_타이틀" data-name="타이틀" xmlns="http://www.w3.org/2000/svg" viewBox="0 0 23.92 15.97">
  <defs>
    <style>
      .cls-1 {
        fill: #fff;
      }
    </style>
  </defs>
  <path class="cls-1" d="M20.67,10.7c-.46,0-.84-.37-.84-.84v-2.83c0-.46.37-.84.84-.84s.84.37.84.84v2.83c0,.46-.37.84-.84.84Z"/>
  <path class="cls-1" d="M11.96,15.97c-2.21,0-4.43-.63-6.23-1.88-.23-.16-.36-.41-.36-.69v-4.92c0-.46.37-.84.84-.84s.84.37.84.84v4.47c2.88,1.78,6.95,1.78,9.83,0v-4.47c0-.46.37-.84.84-.84s.84.37.84.84v4.92c0,.27-.13.53-.36.69-1.81,1.25-4.02,1.88-6.23,1.88Z"/>
  <path class="cls-1" d="M11.96,10.69c-.62,0-1.23-.1-1.72-.3L1.1,6.69C.11,6.29,0,5.61,0,5.34c0-.27.11-.94,1.1-1.35L10.24.3c.98-.4,2.46-.4,3.44,0l9.13,3.7c1,.4,1.1,1.08,1.1,1.35,0,.27-.11.94-1.1,1.35l-9.13,3.7s0,0,0,0c-.49.2-1.11.3-1.72.3ZM13.37,9.61h0,0ZM2.24,5.34l8.62,3.49c.57.23,1.62.23,2.19,0l8.62-3.49L13.05,1.85c-.57-.23-1.62-.23-2.19,0L2.24,5.34Z"/>
</svg>