<?xml version="1.0" encoding="UTF-8"?>
<svg id="_타이틀" data-name="타이틀" xmlns="http://www.w3.org/2000/svg" viewBox="0 0 26.26 26.99">
  <defs>
    <style>
      .cls-1 {
        fill: #fff;
      }
    </style>
  </defs>
  <path class="cls-1" d="M25.29,26.99H.97c-.54,0-.97-.44-.97-.97s.44-.97.97-.97h24.31c.54,0,.97.44.97.97s-.44.97-.97.97Z"/>
  <path class="cls-1" d="M25.29,1.95H.97c-.54,0-.97-.44-.97-.97s.44-.97.97-.97h24.31c.54,0,.97.44.97.97s-.44.97-.97.97Z"/>
  <g>
    <path class="cls-1" d="M.97,12.54h4.86c.54,0,.97.44.97.97s-.44.97-.97.97H.97c-.54,0-.97-.44-.97-.97s.44-.97.97-.97Z"/>
    <g>
      <path class="cls-1" d="M11.33,12.52h12.35c.54,0,.97.44.97.97s-.44.97-.97.97h-12.35c-.54,0-.97-.44-.97-.97s.44-.97.97-.97Z"/>
      <path class="cls-1" d="M17.72,6.06c.22,0,.45.08.63.23l7.57,6.46c.22.18.34.46.34.74s-.12.55-.34.74l-7.57,6.46c-.41.35-1.02.3-1.37-.11-.35-.41-.3-1.02.11-1.37l6.7-5.72-6.7-5.72c-.41-.35-.46-.96-.11-1.37.19-.22.47-.34.74-.34Z"/>
    </g>
  </g>
</svg>