<?xml version="1.0" encoding="UTF-8"?>
<svg id="_타이틀" data-name="타이틀" xmlns="http://www.w3.org/2000/svg" viewBox="0 0 41.85 27.89">
  <defs>
    <style>
      .cls-1 {
        fill: #6c6e72;
      }
    </style>
  </defs>
  <path class="cls-1" d="M20.93,27.89C11.42,27.89,3.05,22.5.09,14.46c-.12-.33-.12-.7,0-1.04C3.05,5.4,11.42,0,20.93,0s17.88,5.4,20.83,13.43c.12.33.12.7,0,1.04-2.96,8.03-11.33,13.43-20.83,13.43ZM3.11,13.95c2.69,6.57,9.77,10.95,17.82,10.95s15.12-4.38,17.82-10.95c-2.69-6.57-9.78-10.95-17.82-10.95S5.8,7.38,3.11,13.95Z"/>
  <path class="cls-1" d="M20.93,20.84c-3.8,0-6.89-3.09-6.89-6.89s3.09-6.89,6.89-6.89,6.89,3.09,6.89,6.89-3.09,6.89-6.89,6.89ZM20.93,10.05c-2.15,0-3.89,1.75-3.89,3.89s1.75,3.89,3.89,3.89,3.89-1.75,3.89-3.89-1.75-3.89-3.89-3.89Z"/>
</svg>