<?xml version="1.0" encoding="UTF-8"?>
<svg id="_타이틀" data-name="타이틀" xmlns="http://www.w3.org/2000/svg" viewBox="0 0 23.26 23.53">
  <defs>
    <style>
      .cls-1 {
        fill: #fff;
      }
    </style>
  </defs>
  <path class="cls-1" d="M5.53,23.53H.84c-.46,0-.84-.38-.84-.84v-11.25c0-.46.37-.84.84-.84h4.69c.46,0,.84.38.84.84v11.25c0,.46-.37.84-.84.84ZM1.67,21.86h3.02v-9.58H1.67v9.58Z"/>
  <path class="cls-1" d="M13.98,23.53h-4.69c-.46,0-.84-.38-.84-.84V.84c0-.46.37-.84.84-.84h4.69c.46,0,.84.38.84.84v21.86c0,.46-.37.84-.84.84ZM10.12,21.86h3.02V1.67h-3.02v20.19Z"/>
  <path class="cls-1" d="M22.43,23.53h-4.69c-.46,0-.84-.38-.84-.84v-12.77c0-.46.37-.84.84-.84h4.69c.46,0,.84.38.84.84v12.77c0,.46-.37.84-.84.84ZM18.57,21.86h3.02v-11.09h-3.02v11.09Z"/>
</svg>