<?xml version="1.0" encoding="UTF-8"?>
<svg id="_타이틀" data-name="타이틀" xmlns="http://www.w3.org/2000/svg" viewBox="0 0 20.98 21.24">
  <defs>
    <style>
      .cls-1 {
        fill: #fff;
      }
    </style>
  </defs>
  <g>
    <path class="cls-1" d="M17.53,17.85H3.45c-1.9,0-3.45-1.55-3.45-3.45V3.45C0,1.55,1.55,0,3.45,0h14.09c1.9,0,3.45,1.55,3.45,3.45v10.96c0,1.9-1.55,3.45-3.45,3.45ZM3.45,1.67c-.98,0-1.77.79-1.77,1.77v10.96c0,.98.79,1.77,1.77,1.77h14.09c.98,0,1.77-.79,1.77-1.77V3.45c0-.98-.8-1.77-1.77-1.77H3.45Z"/>
    <path class="cls-1" d="M14.4,21.24h-7.83c-.46,0-.84-.37-.84-.84s.37-.84.84-.84h7.83c.46,0,.84.37.84.84s-.37.84-.84.84Z"/>
  </g>
  <g>
    <path class="cls-1" d="M6.06,12.63c-.46,0-.84-.37-.84-.84v-2.67c0-.46.37-.84.84-.84s.84.37.84.84v2.67c0,.46-.37.84-.84.84Z"/>
    <path class="cls-1" d="M10.49,12.63c-.46,0-.84-.37-.84-.84v-5.48c0-.46.37-.84.84-.84s.84.37.84.84v5.48c0,.46-.37.84-.84.84Z"/>
    <path class="cls-1" d="M14.92,12.63c-.46,0-.84-.37-.84-.84v-2.67c0-.46.37-.84.84-.84s.84.37.84.84v2.67c0,.46-.37.84-.84.84Z"/>
  </g>
</svg>