<?xml version="1.0" encoding="UTF-8"?>
<svg id="_타이틀" data-name="타이틀" xmlns="http://www.w3.org/2000/svg" viewBox="0 0 23.12 23.12">
  <defs>
    <style>
      .cls-1 {
        fill: #fff;
      }
    </style>
  </defs>
  <g>
    <path class="cls-1" d="M3.89,9.16c-.11,0-.22-.02-.33-.07-.43-.18-.62-.67-.44-1.1.23-.55.52-1.07.85-1.56.33-.49.71-.95,1.12-1.36.41-.41.87-.79,1.35-1.12.49-.33,1.02-.62,1.56-.85.43-.18.92.02,1.1.45.18.43-.02.92-.45,1.1-.44.19-.87.42-1.27.69-.4.27-.77.58-1.11.92-.34.34-.65.71-.92,1.11-.27.4-.5.83-.69,1.27-.14.32-.45.51-.77.51Z"/>
    <path class="cls-1" d="M8.32,20.07c-.11,0-.22-.02-.33-.07-.54-.23-1.07-.51-1.56-.84-.48-.33-.94-.7-1.36-1.12-.41-.41-.79-.87-1.12-1.36-.33-.49-.62-1.02-.85-1.56-.18-.43.02-.92.45-1.1.43-.18.92.02,1.1.45.19.44.42.87.69,1.27.27.4.58.77.91,1.11.34.34.71.65,1.11.92.4.27.83.5,1.27.69.43.18.63.67.45,1.1-.14.32-.45.51-.77.51Z"/>
    <path class="cls-1" d="M14.8,20.07c-.33,0-.64-.19-.77-.51-.18-.43.02-.92.45-1.1.44-.19.87-.42,1.27-.69.39-.26.77-.57,1.11-.92.34-.34.65-.71.92-1.11.27-.4.5-.83.69-1.27.18-.43.67-.62,1.1-.45.43.18.63.67.45,1.1-.23.54-.51,1.06-.84,1.56-.33.49-.71.94-1.12,1.36-.42.42-.87.79-1.36,1.12-.49.33-1.01.61-1.56.84-.11.04-.22.07-.33.07Z"/>
    <path class="cls-1" d="M19.23,9.16c-.33,0-.64-.19-.77-.51-.19-.45-.42-.87-.69-1.27-.27-.4-.58-.77-.91-1.11-.34-.34-.71-.65-1.11-.92-.4-.27-.83-.5-1.27-.69-.43-.18-.63-.67-.45-1.1.18-.43.67-.62,1.1-.45.54.23,1.06.51,1.56.84.49.33.94.71,1.36,1.12.41.41.79.86,1.12,1.35.33.49.61,1.01.85,1.56.18.43-.02.92-.44,1.1-.11.05-.22.07-.33.07Z"/>
  </g>
  <path class="cls-1" d="M11.56,15.58c-2.22,0-4.02-1.8-4.02-4.02s1.8-4.02,4.02-4.02,4.02,1.8,4.02,4.02-1.8,4.02-4.02,4.02ZM11.56,9.22c-1.29,0-2.34,1.05-2.34,2.34s1.05,2.34,2.34,2.34,2.34-1.05,2.34-2.34-1.05-2.34-2.34-2.34Z"/>
  <g>
    <g>
      <path class="cls-1" d="M22.29,12.4h-2.51c-.46,0-.84-.38-.84-.84s.37-.84.84-.84h2.51c.46,0,.84.38.84.84s-.37.84-.84.84Z"/>
      <path class="cls-1" d="M3.34,12.4H.84c-.46,0-.84-.38-.84-.84s.37-.84.84-.84h2.51c.46,0,.84.38.84.84s-.37.84-.84.84Z"/>
    </g>
    <g>
      <path class="cls-1" d="M11.56,4.18c-.46,0-.84-.38-.84-.84V.84c0-.46.37-.84.84-.84s.84.38.84.84v2.51c0,.46-.37.84-.84.84Z"/>
      <path class="cls-1" d="M11.56,23.12c-.46,0-.84-.38-.84-.84v-2.51c0-.46.37-.84.84-.84s.84.38.84.84v2.51c0,.46-.37.84-.84.84Z"/>
    </g>
  </g>
</svg>