<?xml version="1.0" encoding="UTF-8"?>
<svg id="_타이틀" data-name="타이틀" xmlns="http://www.w3.org/2000/svg" viewBox="0 0 18.32 22.63">
  <defs>
    <style>
      .cls-1 {
        fill: #fff;
      }
    </style>
  </defs>
  <g>
    <path class="cls-1" d="M17.48,5.49c-.21,0-.43-.08-.59-.25l-3.81-3.81c-.33-.33-.33-.86,0-1.18.33-.33.86-.33,1.18,0l3.81,3.81c.33.33.33.86,0,1.18-.16.16-.38.25-.59.25Z"/>
    <path class="cls-1" d="M.84,18.32c-.22,0-.43-.09-.59-.25-.19-.19-.27-.45-.24-.71l.65-4.46c.03-.18.11-.34.24-.47L10.88,2.44c.33-.33.86-.33,1.18,0l3.81,3.81c.33.33.33.86,0,1.18l-9.99,9.99c-.13.13-.29.21-.47.24l-4.46.65s-.08,0-.12,0ZM5.3,16.83h0,0ZM2.28,13.41l-.45,3.08,3.08-.45L14.11,6.84l-2.63-2.63L2.28,13.41Z"/>
  </g>
  <path class="cls-1" d="M16.04,22.63H.89c-.46,0-.84-.37-.84-.84s.37-.84.84-.84h15.15c.46,0,.84.37.84.84s-.37.84-.84.84Z"/>
</svg>