<?xml version="1.0" encoding="UTF-8"?>
<svg id="_타이틀" data-name="타이틀" xmlns="http://www.w3.org/2000/svg" viewBox="0 0 24 24">
  <defs>
    <style>
      .cls-1 {
        fill: #fff;
      }
    </style>
  </defs>
  <path class="cls-1" d="M12,24C5.38,24,0,18.62,0,12S5.38,0,12,0s12,5.38,12,12-5.38,12-12,12ZM12,1.67C6.31,1.67,1.67,6.31,1.67,12s4.63,10.33,10.33,10.33,10.33-4.63,10.33-10.33S17.69,1.67,12,1.67Z"/>
  <g>
    <path class="cls-1" d="M12,10.93c-1.62,0-2.95-1.32-2.95-2.95s1.32-2.95,2.95-2.95,2.95,1.32,2.95,2.95-1.32,2.95-2.95,2.95ZM12,6.72c-.7,0-1.27.57-1.27,1.27s.57,1.27,1.27,1.27,1.27-.57,1.27-1.27-.57-1.27-1.27-1.27Z"/>
    <path class="cls-1" d="M15.76,18.53h-7.52c-.46,0-.84-.37-.84-.84v-3.52c0-1.47,1.19-2.66,2.66-2.66h3.88c1.47,0,2.66,1.19,2.66,2.66v3.52c0,.46-.37.84-.84.84ZM9.08,16.86h5.85v-2.68c0-.54-.44-.99-.99-.99h-3.88c-.54,0-.99.44-.99.99v2.68Z"/>
  </g>
</svg>