<?xml version="1.0" encoding="UTF-8"?>
<svg id="_타이틀" data-name="타이틀" xmlns="http://www.w3.org/2000/svg" viewBox="0 0 21.33 23.64">
  <defs>
    <style>
      .cls-1 {
        fill: #fff;
      }
    </style>
  </defs>
  <path class="cls-1" d="M10.46,15.31c-1.93,0-3.49-1.57-3.49-3.49s1.57-3.49,3.49-3.49,3.49,1.57,3.49,3.49-1.57,3.49-3.49,3.49ZM10.46,10c-1,0-1.82.82-1.82,1.82s.82,1.82,1.82,1.82,1.82-.82,1.82-1.82-.82-1.82-1.82-1.82Z"/>
  <path class="cls-1" d="M10.71,23.64h-.09c-1.68,0-3.04-1.36-3.04-3.04v-.47c-.95-.33-1.84-.82-2.63-1.45l-.35.2c-1.45.84-3.31.34-4.15-1.11l-.05-.09c-.83-1.44-.33-3.3,1.12-4.14l.28-.16c-.1-.52-.15-1.04-.15-1.56s.05-1.03.15-1.56l-.28-.16C.07,9.26-.43,7.4.41,5.95l.05-.08c.84-1.45,2.7-1.95,4.15-1.11l.35.2c.78-.63,1.68-1.12,2.63-1.45v-.47c0-1.67,1.36-3.04,3.04-3.04h.09c1.67,0,3.04,1.36,3.04,3.04v.62c.86.35,1.68.84,2.39,1.44l.59-.34c1.45-.84,3.31-.34,4.15,1.11l.05.08c.84,1.46.34,3.32-1.11,4.15l-.65.38c.07.45.11.9.11,1.34s-.04.89-.11,1.34l.65.38c.7.41,1.2,1.06,1.41,1.84s.1,1.6-.3,2.3l-.04.08c-.84,1.46-2.7,1.96-4.15,1.12l-.59-.34c-.71.6-1.53,1.09-2.39,1.44v.62c0,1.68-1.36,3.04-3.04,3.04ZM5.05,16.82c.21,0,.41.08.57.22.85.79,1.89,1.36,3.01,1.66.37.1.62.43.62.81v1.09c0,.75.61,1.36,1.36,1.36h.09c.75,0,1.36-.61,1.36-1.36v-1.2c0-.36.23-.69.58-.8,1.04-.34,2-.92,2.79-1.69.27-.26.68-.31,1-.13l1.12.64c.65.38,1.49.15,1.86-.5l.04-.08c.19-.32.23-.69.14-1.04-.09-.35-.32-.64-.63-.83h0l-1.17-.68c-.32-.18-.48-.55-.4-.91.12-.53.18-1.06.18-1.58s-.06-1.05-.18-1.58c-.08-.36.08-.73.4-.91l1.17-.67c.65-.38.87-1.21.5-1.86l-.04-.08c-.38-.65-1.21-.88-1.86-.5l-1.12.64c-.32.19-.74.14-1-.13-.78-.77-1.75-1.35-2.79-1.69-.35-.11-.58-.43-.58-.8v-1.2c0-.75-.61-1.36-1.36-1.36h-.09c-.75,0-1.36.61-1.36,1.36v1.09c0,.38-.26.71-.62.81-1.12.3-2.16.87-3.01,1.66-.27.25-.67.29-.99.11l-.87-.5c-.65-.38-1.49-.15-1.86.5l-.05.08c-.38.65-.15,1.49.5,1.86l.81.47c.33.19.49.57.39.93-.15.6-.23,1.19-.23,1.77s.08,1.17.23,1.77c.09.36-.07.75-.39.93l-.81.47c-.65.38-.87,1.21-.5,1.86l.05.09c.37.64,1.21.87,1.86.49l.86-.5c.13-.08.28-.11.42-.11Z"/>
</svg>