<?xml version="1.0" encoding="UTF-8"?>
<svg id="_타이틀" data-name="타이틀" xmlns="http://www.w3.org/2000/svg" viewBox="0 0 19.88 19.89">
  <defs>
    <style>
      .cls-1 {
        fill: #6c6e72;
      }
    </style>
  </defs>
  <path class="cls-1" d="M9.94,19.89s0,0,0,0c-2.66,0-5.15-1.03-7.03-2.91C-.97,13.1-.97,6.79,2.91,2.91c3.88-3.88,10.19-3.88,14.07,0,3.88,3.88,3.88,10.19,0,14.07-1.88,1.88-4.38,2.91-7.03,2.91ZM9.94,1.53c-2.16,0-4.31.82-5.95,2.46C.71,7.27.71,12.61,3.99,15.89s8.62,3.28,11.9,0,3.28-8.62,0-11.9c-1.64-1.64-3.8-2.46-5.95-2.46Z"/>
  <path class="cls-1" d="M6.58,14.06c-.2,0-.39-.07-.54-.22-.3-.3-.3-.78,0-1.08l6.72-6.72c.3-.3.78-.3,1.08,0,.3.3.3.78,0,1.08l-6.72,6.72c-.15.15-.35.22-.54.22Z"/>
  <path class="cls-1" d="M13.3,14.06c-.2,0-.39-.07-.54-.22l-6.72-6.72c-.3-.3-.3-.78,0-1.08.3-.3.78-.3,1.08,0l6.72,6.72c.3.3.3.78,0,1.08-.15.15-.35.22-.54.22Z"/>
</svg>